<svg xmlns="http://www.w3.org/2000/svg" viewBox="138.96999816894532 156.28500366210938 297.0600128173828 259.4900016784668"><rect height="100%" width="100%" x="138.96999816894532" y="156.28500366210938" fill="#ffffff"/> <svg xmlns="http://www.w3.org/2000/svg" viewBox="292.7300109863281 189.08999633789062 414.5400085449219 621.8199462890625" height="74.99999999999999" width="49.99927170403716" y="226.28500366210938" x="262.5" preserveAspectRatio="xMinYMin" style="overflow: visible;"><polygon id="Layer_1" dataName="Layer 1" class="cls-2" points="458.55 352.71 458.55 476.92 292.73 532.2 292.73 272 458.55 352.71" style="fill: #00d7e3; fill-opacity: 1;"></polygon><polygon id="Layer_1" dataName="Layer 1" class="cls-2" points="458.55 612.91 458.55 810.91 292.73 730.2 292.73 532.2 458.55 612.91" style="fill: #00d7e3; fill-opacity: 1;"></polygon><polygon id="Layer_1" dataName="Layer 1" class="cls-3" points="707.27 530 458.55 612.91 458.55 476.92 541.45 449.29 707.27 530" style="fill: #9a6ef9; fill-opacity: 1;"></polygon><polygon id="Layer_1" dataName="Layer 1" class="cls-4" points="458.55 476.92 458.55 612.91 292.73 532.2 458.55 476.92" style="fill: #005bdc; fill-opacity: 1;"></polygon><polygon id="Layer_1" dataName="Layer 1" class="cls-2" points="707.27 269.8 707.27 530 541.45 449.29 541.45 325.08 707.27 269.8" style="fill: #00d7e3; fill-opacity: 1;"></polygon><polygon id="Layer_1" dataName="Layer 1" class="cls-3" points="541.45 189.09 541.45 325.08 458.55 352.71 292.73 272 541.45 189.09" style="fill: #9a6ef9; fill-opacity: 1;"></polygon><polygon id="Layer_1" dataName="Layer 1" class="cls-4" points="707.27 269.8 541.45 325.08 541.45 189.09 707.27 269.8" style="fill: #005bdc; fill-opacity: 1;"></polygon></svg> <svg y="320.2850036621094" viewBox="4.289999961853027 3.380000114440918 157.0600128173828 25.490001678466797" x="208.96999816894532" height="25.490001678466797" width="157.0600128173828" style="overflow: visible;"><g fill="#000" style=""><path d="M29.15 11.21L29.15 11.21Q29.15 13.12 28.53 14.58Q27.91 16.05 26.57 17.05Q25.23 18.05 23.13 18.56Q21.02 19.07 18.05 19.07L18.05 19.07L6.61 19.07L6.61 28.87L4.29 28.87L4.29 3.38L18.05 3.38Q21.02 3.38 23.13 3.89Q25.23 4.40 26.57 5.38Q27.91 6.36 28.53 7.83Q29.15 9.30 29.15 11.21ZM26.76 11.21L26.76 11.21Q26.76 9.39 26.15 8.28Q25.55 7.16 24.30 6.56Q23.04 5.96 21.12 5.75Q19.20 5.55 16.57 5.55L16.57 5.55L6.61 5.55L6.61 16.90L16.57 16.90Q17.59 16.90 18.75 16.91Q19.91 16.92 21.04 16.80Q22.17 16.68 23.20 16.37Q24.23 16.07 25.02 15.44Q25.81 14.81 26.28 13.79Q26.76 12.77 26.76 11.21ZM56.35 28.87L35.40 28.87L35.40 3.38L37.72 3.38L37.72 26.70L56.35 26.70L56.35 28.87ZM87.93 28.87L85.39 28.87L81.88 22.15L64.57 22.15L61.06 28.87L58.52 28.87L71.86 3.38L74.59 3.38L87.93 28.87ZM80.75 20.02L73.24 5.62L65.70 20.02L80.75 20.02ZM119.94 28.87L117.41 28.87L95.26 6.42L95.26 28.87L92.94 28.87L92.94 3.38L95.50 3.38L117.66 25.90L117.66 3.38L119.94 3.38L119.94 28.87ZM130.83 28.87L128.51 28.87L128.51 3.38L130.83 3.38L130.83 28.87ZM161.35 5.49L149.75 5.49L149.75 28.87L147.45 28.87L147.45 5.49L135.86 5.49L135.86 3.38L161.35 3.38L161.35 5.49Z" transform="translate(0, 0)"></path></g></svg></svg>